%FSLAX33Y33*%
%MOMM*%
%ADD10C,0.15*%
%ADD11C,0.2032*%
%ADD12C,0.5*%
%ADD13C,0.5*%
%ADD14C,0.5*%
D10*
%LNtop silkscreen_traces*%
%LNtop silkscreen component 3cb8959678233c1b*%
G01*
X15911Y-1911D02*
X12820Y-1911D01*
X12820Y5089*
X15911Y5089*
X15911Y-1911*
D11*
X12381Y-3536D02*
X12379Y-3542D01*
X12379Y-3542*
X12420Y-3562*
X12453Y-3587*
X12481Y-3616*
X12503Y-3649*
X12519Y-3686*
X12528Y-3727*
X12532Y-3774*
X12529Y-3823*
X12521Y-3866*
X12509Y-3903*
X12492Y-3934*
X12471Y-3962*
X12446Y-3986*
X12415Y-4007*
X12379Y-4025*
X12338Y-4040*
X12296Y-4051*
X12253Y-4057*
X12207Y-4059*
X12158Y-4057*
X12113Y-4050*
X12072Y-4038*
X12035Y-4022*
X12002Y-4002*
X11974Y-3979*
X11950Y-3952*
X11930Y-3921*
X11914Y-3887*
X11902Y-3851*
X11895Y-3812*
X11893Y-3772*
X11896Y-3728*
X11905Y-3688*
X11919Y-3653*
X11938Y-3622*
X11962Y-3595*
X11991Y-3572*
X12025Y-3553*
X12014Y-3557*
X12013Y-3551*
X12015Y-3550*
X11978Y-3570*
X11945Y-3595*
X11918Y-3624*
X11898Y-3657*
X11883Y-3694*
X11875Y-3733*
X11872Y-3774*
X11875Y-3820*
X11884Y-3864*
X11899Y-3905*
X11921Y-3941*
X11948Y-3973*
X11979Y-4000*
X12014Y-4022*
X12052Y-4038*
X12090Y-4049*
X12128Y-4057*
X12167Y-4062*
X12206Y-4063*
X12255Y-4061*
X12300Y-4056*
X12344Y-4046*
X12385Y-4033*
X12423Y-4015*
X12458Y-3991*
X12487Y-3963*
X12511Y-3930*
X12529Y-3894*
X12542Y-3858*
X12550Y-3820*
X12552Y-3781*
X12549Y-3735*
X12538Y-3691*
X12520Y-3651*
X12495Y-3614*
X12462Y-3582*
X12423Y-3556*
X12379Y-3536*
X12381Y-3536*
X12429Y-3336D02*
X12429Y-3344D01*
X12421Y-3346*
X12456Y-3333*
X12487Y-3314*
X12514Y-3291*
X12534Y-3263*
X12549Y-3233*
X12558Y-3200*
X12561Y-3166*
X12557Y-3125*
X12545Y-3087*
X12524Y-3052*
X12497Y-3021*
X12462Y-2996*
X12423Y-2978*
X12381Y-2967*
X12335Y-2964*
X12292Y-2967*
X12251Y-2977*
X12214Y-2995*
X12181Y-3020*
X12155Y-3051*
X12137Y-3087*
X12126Y-3126*
X12122Y-3167*
X12124Y-3194*
X12129Y-3220*
X12137Y-3245*
X12148Y-3269*
X12162Y-3290*
X12177Y-3309*
X12195Y-3326*
X12188Y-3321*
X12188Y-3321*
X11915Y-3269*
X11915Y-3006*
X11897Y-3006*
X11897Y-3282*
X12243Y-3352*
X12166Y-3224*
X12155Y-3197*
X12149Y-3171*
X12147Y-3144*
X12150Y-3109*
X12159Y-3077*
X12174Y-3049*
X12196Y-3022*
X12223Y-3001*
X12253Y-2985*
X12288Y-2976*
X12328Y-2972*
X12366Y-2975*
X12402Y-2984*
X12434Y-2998*
X12463Y-3018*
X12494Y-3048*
X12514Y-3081*
X12527Y-3120*
X12531Y-3167*
X12529Y-3205*
X12521Y-3238*
X12507Y-3267*
X12489Y-3292*
X12467Y-3312*
X12442Y-3328*
X12412Y-3339*
X12429Y-3336*
%LNtop silkscreen component 824f435eb96077e0*%
D10*
X14871Y54194D02*
X16939Y51897D01*
X9716Y45393*
X7648Y47690*
X14871Y54194*
D11*
X17705Y52182D02*
X18116Y51725D01*
X17919Y51547*
X17886Y51520*
X17858Y51498*
X17833Y51483*
X17813Y51474*
X17796Y51469*
X17779Y51467*
X17760Y51468*
X17741Y51472*
X17721Y51480*
X17703Y51490*
X17686Y51502*
X17670Y51517*
X17653Y51540*
X17642Y51562*
X17636Y51586*
X17634Y51611*
X17637Y51637*
X17647Y51665*
X17665Y51697*
X17780Y51851*
X17621Y51808*
X17606Y51805*
X17594Y51803*
X17585Y51803*
X17561Y51804*
X17534Y51807*
X17506Y51812*
X17476Y51819*
X17343Y51856*
X17342Y51855*
X17485Y51815*
X17521Y51805*
X17553Y51797*
X17582Y51791*
X17607Y51786*
X17630Y51783*
X17652Y51781*
X17672Y51781*
X17691Y51783*
X17707Y51786*
X17723Y51790*
X17738Y51796*
X17753Y51803*
X17765Y51811*
X17777Y51820*
X17790Y51830*
X17803Y51842*
X17923Y51950*
X17710Y52186*
X17705Y52182*
X17906Y51893D02*
X17906Y51893D01*
X17755Y51757*
X17733Y51736*
X17714Y51715*
X17699Y51697*
X17688Y51679*
X17681Y51661*
X17676Y51644*
X17674Y51627*
X17676Y51610*
X17680Y51593*
X17686Y51577*
X17694Y51563*
X17705Y51549*
X17723Y51533*
X17742Y51521*
X17764Y51514*
X17788Y51512*
X17813Y51515*
X17840Y51525*
X17867Y51542*
X17896Y51565*
X18065Y51717*
X17906Y51893*
X17026Y51570D02*
X17015Y51561D01*
X17432Y51098*
X17447Y51231*
X17451Y51253*
X17456Y51276*
X17464Y51302*
X17472Y51327*
X17481Y51350*
X17490Y51371*
X17466Y51323*
X17452Y51339*
X17448Y51328*
X17436Y51288*
X17426Y51247*
X17420Y51206*
X17417Y51167*
X17418Y51131*
X17421Y51096*
X17421Y51095*
X17439Y51111*
X17026Y51570*
%LNtop silkscreen component 88b3df5dd39fbf3c*%
X4116Y63896D02*
X4116Y63890D01*
X4478Y63890*
X4527Y63888*
X4568Y63884*
X4604Y63877*
X4632Y63869*
X4655Y63858*
X4675Y63843*
X4693Y63824*
X4710Y63801*
X4724Y63774*
X4734Y63742*
X4740Y63704*
X4743Y63660*
X4741Y63618*
X4735Y63580*
X4726Y63548*
X4714Y63520*
X4699Y63498*
X4682Y63479*
X4662Y63464*
X4639Y63452*
X4609Y63442*
X4573Y63435*
X4529Y63430*
X4478Y63428*
X4116Y63428*
X4116Y63421*
X4479Y63421*
X4525Y63422*
X4566Y63426*
X4602Y63432*
X4635Y63442*
X4663Y63456*
X4689Y63475*
X4710Y63497*
X4728Y63524*
X4742Y63553*
X4752Y63584*
X4757Y63617*
X4759Y63653*
X4755Y63708*
X4745Y63758*
X4725Y63802*
X4695Y63839*
X4654Y63867*
X4604Y63884*
X4546Y63894*
X4480Y63896*
X4116Y63896*
X4730Y64343D02*
X4730Y64356D01*
X4108Y64356*
X4197Y64256*
X4210Y64239*
X4224Y64219*
X4238Y64197*
X4251Y64173*
X4263Y64151*
X4272Y64131*
X4252Y64181*
X4273Y64181*
X4268Y64190*
X4246Y64227*
X4222Y64261*
X4196Y64293*
X4169Y64321*
X4142Y64345*
X4114Y64366*
X4113Y64366*
X4113Y64343*
X4730Y64343*
X4428Y64669D02*
X4371Y64671D01*
X4320Y64676*
X4277Y64683*
X4240Y64693*
X4209Y64705*
X4183Y64720*
X4162Y64736*
X4144Y64754*
X4131Y64774*
X4121Y64796*
X4115Y64822*
X4113Y64853*
X4114Y64874*
X4118Y64895*
X4123Y64913*
X4131Y64929*
X4140Y64944*
X4151Y64958*
X4165Y64971*
X4180Y64982*
X4199Y64993*
X4221Y65003*
X4245Y65012*
X4271Y65020*
X4301Y65026*
X4338Y65031*
X4380Y65034*
X4428Y65035*
X4485Y65033*
X4535Y65029*
X4579Y65021*
X4615Y65011*
X4646Y64999*
X4672Y64985*
X4694Y64968*
X4712Y64950*
X4725Y64930*
X4734Y64908*
X4740Y64882*
X4742Y64853*
X4739Y64813*
X4728Y64781*
X4712Y64753*
X4688Y64730*
X4646Y64705*
X4589Y64686*
X4517Y64674*
X4428Y64669*
X4428Y64709D02*
X4428Y64709D01*
X4509Y64712*
X4575Y64719*
X4626Y64732*
X4663Y64750*
X4688Y64772*
X4707Y64796*
X4717Y64823*
X4721Y64852*
X4717Y64881*
X4706Y64908*
X4688Y64932*
X4663Y64954*
X4626Y64972*
X4575Y64985*
X4509Y64993*
X4428Y64995*
X4347Y64993*
X4281Y64985*
X4230Y64972*
X4193Y64954*
X4168Y64932*
X4150Y64908*
X4139Y64881*
X4135Y64851*
X4138Y64822*
X4148Y64797*
X4164Y64774*
X4186Y64754*
X4226Y64735*
X4280Y64720*
X4347Y64712*
X4428Y64709*
D12*
X1346Y62799D03*
%LNtop silkscreen component 81296bd5f93fcded*%
D10*
X6797Y10507D02*
X6797Y45678D01*
X18235Y45678*
X18235Y10507*
X6797Y10507*
D11*
X6506Y46593D02*
X6499Y46593D01*
X6499Y46231*
X6497Y46182*
X6493Y46141*
X6486Y46106*
X6478Y46077*
X6467Y46055*
X6452Y46034*
X6433Y46016*
X6410Y45999*
X6383Y45985*
X6351Y45975*
X6313Y45969*
X6270Y45967*
X6227Y45968*
X6189Y45974*
X6157Y45983*
X6129Y45995*
X6107Y46010*
X6088Y46027*
X6073Y46047*
X6061Y46071*
X6051Y46100*
X6044Y46136*
X6039Y46180*
X6037Y46231*
X6037Y46593*
X6030Y46593*
X6030Y46230*
X6032Y46184*
X6035Y46143*
X6041Y46107*
X6051Y46075*
X6065Y46046*
X6084Y46020*
X6107Y45999*
X6133Y45981*
X6162Y45967*
X6194Y45958*
X6227Y45952*
X6262Y45950*
X6317Y45954*
X6367Y45964*
X6411Y45984*
X6448Y46014*
X6476Y46055*
X6493Y46105*
X6503Y46163*
X6506Y46229*
X6506Y46593*
X6731Y46069D02*
X6724Y46069D01*
X6722Y46077*
X6735Y46042*
X6753Y46011*
X6777Y45984*
X6804Y45964*
X6835Y45949*
X6867Y45940*
X6902Y45937*
X6942Y45941*
X6981Y45953*
X7016Y45974*
X7047Y46001*
X7072Y46036*
X7090Y46075*
X7101Y46117*
X7104Y46163*
X7101Y46206*
X7090Y46247*
X7073Y46285*
X7047Y46317*
X7016Y46343*
X6981Y46362*
X6942Y46372*
X6901Y46376*
X6873Y46374*
X6847Y46369*
X6822Y46361*
X6799Y46350*
X6777Y46336*
X6758Y46321*
X6741Y46303*
X6746Y46310*
X6747Y46310*
X6799Y46583*
X7062Y46583*
X7062Y46601*
X6785Y46601*
X6716Y46255*
X6844Y46332*
X6870Y46343*
X6897Y46349*
X6923Y46352*
X6959Y46348*
X6991Y46339*
X7019Y46324*
X7045Y46302*
X7067Y46275*
X7082Y46245*
X7092Y46210*
X7095Y46170*
X7092Y46132*
X7084Y46096*
X7070Y46064*
X7050Y46035*
X7020Y46005*
X6987Y45984*
X6948Y45971*
X6901Y45967*
X6863Y45969*
X6830Y45978*
X6801Y45991*
X6776Y46009*
X6755Y46031*
X6740Y46056*
X6729Y46086*
X6731Y46069*
D13*
X8547Y45936D03*
%LNtop silkscreen component b3a48d7d43e52f89*%
D10*
X18428Y9604D02*
X18428Y5401D01*
X7175Y5401*
X7175Y9604*
X18428Y9604*
D11*
X18293Y5052D02*
X18055Y4730D01*
X18263Y4437*
X18275Y4437*
X18161Y4599*
X18142Y4626*
X18127Y4649*
X18115Y4668*
X18063Y4756*
X18006Y4666*
X17994Y4647*
X17980Y4628*
X17964Y4607*
X17835Y4437*
X17859Y4437*
X18072Y4723*
X17837Y5052*
X17829Y5052*
X17994Y4818*
X18001Y4808*
X18008Y4796*
X18016Y4785*
X18067Y4703*
X18121Y4790*
X18130Y4805*
X18137Y4816*
X18143Y4824*
X18307Y5052*
X18293Y5052*
X17410Y5052D02*
X17396Y5052D01*
X17396Y4430*
X17497Y4518*
X17514Y4532*
X17534Y4545*
X17556Y4559*
X17580Y4572*
X17602Y4584*
X17622Y4593*
X17572Y4573*
X17572Y4594*
X17562Y4590*
X17526Y4568*
X17492Y4543*
X17460Y4517*
X17432Y4490*
X17407Y4463*
X17387Y4435*
X17387Y4434*
X17410Y4434*
X17410Y5052*
%LNtop silkscreen component 60de64ed69294721*%
X20895Y20640D02*
X20902Y20640D01*
X20902Y21002*
X20903Y21051*
X20907Y21093*
X20914Y21128*
X20923Y21156*
X20934Y21179*
X20948Y21199*
X20967Y21218*
X20990Y21234*
X21017Y21248*
X21049Y21258*
X21087Y21265*
X21131Y21267*
X21174Y21265*
X21212Y21259*
X21244Y21250*
X21271Y21238*
X21294Y21223*
X21312Y21206*
X21328Y21186*
X21340Y21163*
X21349Y21134*
X21357Y21097*
X21362Y21054*
X21363Y21002*
X21363Y20640*
X21370Y20640*
X21370Y21003*
X21369Y21049*
X21365Y21090*
X21359Y21127*
X21349Y21159*
X21335Y21187*
X21317Y21213*
X21294Y21235*
X21268Y21253*
X21238Y21266*
X21207Y21276*
X21174Y21281*
X21139Y21283*
X21084Y21280*
X21034Y21269*
X20990Y21249*
X20952Y21220*
X20925Y21178*
X20907Y21128*
X20898Y21070*
X20895Y21004*
X20895Y20640*
X20318Y21272D02*
X20318Y21255D01*
X20688Y21255*
X20689Y21293*
X20688Y21283*
X20686Y21273*
X20682Y21262*
X20674Y21243*
X20663Y21223*
X20649Y21203*
X20633Y21182*
X20613Y21160*
X20588Y21136*
X20559Y21109*
X20524Y21080*
X20470Y21034*
X20424Y20992*
X20387Y20954*
X20358Y20919*
X20337Y20886*
X20321Y20853*
X20311Y20819*
X20307Y20784*
X20311Y20748*
X20321Y20715*
X20337Y20685*
X20360Y20658*
X20389Y20636*
X20421Y20621*
X20456Y20611*
X20493Y20608*
X20532Y20612*
X20568Y20621*
X20602Y20638*
X20631Y20661*
X20655Y20691*
X20671Y20725*
X20681Y20763*
X20680Y20747*
X20665Y20749*
X20666Y20759*
X20655Y20726*
X20640Y20699*
X20620Y20678*
X20596Y20661*
X20567Y20648*
X20532Y20640*
X20491Y20638*
X20450Y20641*
X20416Y20649*
X20387Y20662*
X20363Y20681*
X20344Y20703*
X20330Y20728*
X20322Y20755*
X20319Y20786*
X20320Y20802*
X20322Y20818*
X20326Y20834*
X20332Y20850*
X20340Y20866*
X20351Y20884*
X20365Y20903*
X20382Y20923*
X20404Y20947*
X20433Y20975*
X20469Y21007*
X20512Y21045*
X20549Y21075*
X20578Y21101*
X20601Y21122*
X20618Y21138*
X20630Y21152*
X20642Y21166*
X20652Y21180*
X20712Y21272*
X20318Y21272*
D14*
X21743Y7835D03*
%LNtop silkscreen component 93e284b16ed1c30b*%
D10*
X14871Y58299D02*
X16939Y56002D01*
X9716Y49498*
X7648Y51795*
X14871Y58299*
D11*
X17431Y55853D02*
X17436Y55856D01*
X17437Y55856*
X17424Y55900*
X17420Y55942*
X17423Y55982*
X17433Y56020*
X17450Y56056*
X17474Y56091*
X17507Y56125*
X17545Y56155*
X17582Y56179*
X17617Y56194*
X17652Y56203*
X17686Y56205*
X17722Y56203*
X17758Y56194*
X17796Y56179*
X17834Y56159*
X17870Y56135*
X17904Y56107*
X17936Y56074*
X17967Y56036*
X17991Y55998*
X18010Y55960*
X18023Y55922*
X18030Y55884*
X18032Y55847*
X18028Y55812*
X18018Y55776*
X18004Y55741*
X17984Y55708*
X17961Y55678*
X17933Y55649*
X17897Y55621*
X17862Y55601*
X17827Y55588*
X17791Y55582*
X17754Y55581*
X17718Y55588*
X17681Y55600*
X17691Y55595*
X17688Y55590*
X17686Y55591*
X17726Y55577*
X17766Y55569*
X17806Y55569*
X17844Y55575*
X17881Y55589*
X17915Y55609*
X17948Y55635*
X17980Y55668*
X18007Y55704*
X18027Y55742*
X18039Y55783*
X18045Y55824*
X18044Y55865*
X18037Y55906*
X18024Y55945*
X18006Y55981*
X17987Y56014*
X17964Y56046*
X17939Y56076*
X17905Y56111*
X17871Y56141*
X17835Y56167*
X17797Y56189*
X17758Y56205*
X17718Y56215*
X17676Y56218*
X17636Y56214*
X17598Y56203*
X17562Y56189*
X17529Y56169*
X17498Y56145*
X17466Y56111*
X17441Y56074*
X17423Y56034*
X17412Y55990*
X17410Y55944*
X17417Y55898*
X17432Y55852*
X17431Y55853*
X17608Y55363D02*
X17597Y55375D01*
X17328Y55133*
X17329Y55132*
X17328Y55167*
X17323Y55227*
X17313Y55290*
X17299Y55358*
X17281Y55427*
X17260Y55494*
X17235Y55559*
X17206Y55623*
X17183Y55667*
X17157Y55712*
X17127Y55756*
X17122Y55762*
X17115Y55756*
X17108Y55765*
X17134Y55727*
X17161Y55683*
X17188Y55633*
X17213Y55579*
X17235Y55525*
X17254Y55469*
X17270Y55411*
X17283Y55354*
X17292Y55299*
X17298Y55248*
X17306Y55090*
X17608Y55363*
%LNtop silkscreen component 46b559c0f7b6c974*%
D10*
X12315Y-1911D02*
X9224Y-1911D01*
X9224Y5089*
X12315Y5089*
X12315Y-1911*
D11*
X8785Y-3536D02*
X8783Y-3542D01*
X8783Y-3542*
X8824Y-3562*
X8857Y-3587*
X8885Y-3616*
X8907Y-3649*
X8923Y-3686*
X8932Y-3727*
X8936Y-3774*
X8933Y-3823*
X8925Y-3866*
X8913Y-3903*
X8896Y-3934*
X8875Y-3962*
X8850Y-3986*
X8819Y-4007*
X8783Y-4025*
X8742Y-4040*
X8700Y-4051*
X8657Y-4057*
X8611Y-4059*
X8562Y-4057*
X8517Y-4050*
X8476Y-4038*
X8439Y-4022*
X8406Y-4002*
X8378Y-3979*
X8354Y-3952*
X8334Y-3921*
X8318Y-3887*
X8306Y-3851*
X8299Y-3812*
X8297Y-3772*
X8300Y-3728*
X8309Y-3688*
X8323Y-3653*
X8342Y-3622*
X8366Y-3595*
X8395Y-3572*
X8429Y-3553*
X8418Y-3557*
X8417Y-3551*
X8419Y-3550*
X8382Y-3570*
X8349Y-3595*
X8322Y-3624*
X8302Y-3657*
X8287Y-3694*
X8279Y-3733*
X8276Y-3774*
X8279Y-3820*
X8288Y-3864*
X8303Y-3905*
X8325Y-3941*
X8352Y-3973*
X8383Y-4000*
X8418Y-4022*
X8456Y-4038*
X8494Y-4049*
X8532Y-4057*
X8571Y-4062*
X8610Y-4063*
X8659Y-4061*
X8704Y-4056*
X8748Y-4046*
X8789Y-4033*
X8827Y-4015*
X8862Y-3991*
X8891Y-3963*
X8915Y-3930*
X8933Y-3894*
X8946Y-3858*
X8954Y-3820*
X8956Y-3781*
X8953Y-3735*
X8942Y-3691*
X8924Y-3651*
X8899Y-3614*
X8866Y-3582*
X8827Y-3556*
X8783Y-3536*
X8785Y-3536*
X8388Y-3001D02*
X8387Y-2989D01*
X8401Y-2985*
X8375Y-2995*
X8352Y-3007*
X8331Y-3023*
X8307Y-3050*
X8290Y-3080*
X8280Y-3114*
X8277Y-3148*
X8279Y-3176*
X8285Y-3203*
X8296Y-3229*
X8310Y-3252*
X8332Y-3278*
X8358Y-3300*
X8387Y-3319*
X8421Y-3335*
X8459Y-3347*
X8502Y-3356*
X8551Y-3361*
X8767Y-3370*
X8615Y-3257*
X8600Y-3243*
X8588Y-3228*
X8578Y-3212*
X8571Y-3194*
X8565Y-3176*
X8562Y-3158*
X8561Y-3140*
X8564Y-3107*
X8573Y-3078*
X8588Y-3051*
X8610Y-3026*
X8636Y-3005*
X8666Y-2991*
X8701Y-2981*
X8742Y-2978*
X8769Y-2980*
X8795Y-2984*
X8820Y-2992*
X8844Y-3002*
X8866Y-3014*
X8884Y-3029*
X8899Y-3045*
X8912Y-3063*
X8922Y-3082*
X8930Y-3104*
X8934Y-3127*
X8935Y-3151*
X8931Y-3194*
X8920Y-3230*
X8900Y-3263*
X8873Y-3291*
X8836Y-3315*
X8785Y-3333*
X8720Y-3345*
X8639Y-3349*
X8548Y-3345*
X8473Y-3332*
X8414Y-3311*
X8369Y-3283*
X8342Y-3256*
X8322Y-3224*
X8311Y-3187*
X8306Y-3143*
X8309Y-3111*
X8316Y-3083*
X8326Y-3059*
X8341Y-3038*
X8360Y-3021*
X8382Y-3007*
X8409Y-2997*
X8388Y-3001*
X8742Y-3299D02*
X8742Y-3299D01*
X8765Y-3298*
X8787Y-3294*
X8808Y-3288*
X8829Y-3280*
X8849Y-3269*
X8866Y-3257*
X8880Y-3242*
X8892Y-3226*
X8902Y-3208*
X8909Y-3190*
X8913Y-3172*
X8914Y-3153*
X8911Y-3126*
X8903Y-3101*
X8889Y-3078*
X8869Y-3057*
X8845Y-3040*
X8816Y-3027*
X8784Y-3020*
X8747Y-3017*
X8712Y-3020*
X8681Y-3027*
X8654Y-3039*
X8630Y-3057*
X8612Y-3078*
X8598Y-3101*
X8590Y-3128*
X8587Y-3156*
X8590Y-3185*
X8598Y-3211*
X8612Y-3236*
X8630Y-3257*
X8653Y-3276*
X8680Y-3289*
X8709Y-3296*
X8742Y-3299*
M02*