%FSLAX33Y33*%
%MOMM*%
%ADD10C,0.83185*%
%ADD11C,2.54*%
%ADD12C,1.05*%
%ADD13C,1.05*%
%ADD14C,1.1*%
%ADD15C,1.09982*%
%ADD16C,0.85*%
%ADD17C,0.85*%
%ADD18C,1.1*%
D10*
%LNhole_traces*%
G01*
X23622Y30773D03*
D11*
X10160Y69215D03*
D10*
X4928Y3302D03*
X7883Y26822D03*
X7883Y29362D03*
D11*
X15231Y69215D03*
D10*
X3048Y32258D03*
X20980Y18669D03*
%LNhole component 3cb8959678233c1b*%
D12*
X14366Y-1036D03*
X14366Y4214D03*
%LNhole component 824f435eb96077e0*%
D13*
X15125Y52343D03*
X9462Y47244D03*
%LNhole component 88b3df5dd39fbf3c*%
D14*
X19126Y61646D03*
X3886Y61646D03*
X21666Y61646D03*
X8966Y61646D03*
X14046Y61646D03*
D15*
X16586Y61646D03*
X11506Y61646D03*
X6426Y61646D03*
%LNhole component 81296bd5f93fcded*%
D16*
X8547Y44602D03*
X8547Y42062D03*
X8547Y39522D03*
X8547Y36982D03*
X8547Y34442D03*
X8547Y31902D03*
X8547Y29362D03*
X8547Y26822D03*
X8547Y24282D03*
X8547Y21742D03*
X8547Y19202D03*
X8547Y16662D03*
X8547Y14122D03*
X8547Y11582D03*
X16485Y11582D03*
X16485Y14122D03*
X16485Y16662D03*
X16485Y19202D03*
X16485Y21742D03*
X16485Y24282D03*
X16485Y26822D03*
X16485Y29362D03*
X16485Y31902D03*
X16485Y34442D03*
X16485Y36982D03*
X16485Y39522D03*
X16485Y42062D03*
X16485Y44602D03*
%LNhole component b3a48d7d43e52f89*%
D17*
X15302Y7502D03*
X10302Y7502D03*
%LNhole component 60de64ed69294721*%
D18*
X20168Y7835D03*
X20168Y10375D03*
X20168Y12915D03*
X20168Y15455D03*
X20168Y23075D03*
X20168Y48475D03*
X20168Y53555D03*
X20168Y56095D03*
X4928Y7835D03*
X4928Y10375D03*
X4928Y12915D03*
X4928Y28155D03*
X4928Y51015D03*
X4928Y53555D03*
X4928Y56095D03*
X20168Y25615D03*
X4928Y25615D03*
X4928Y23075D03*
X4928Y15455D03*
X20168Y28155D03*
X20168Y51015D03*
X4928Y48475D03*
%LNhole component 93e284b16ed1c30b*%
D13*
X15125Y56448D03*
X9462Y51349D03*
%LNhole component 46b559c0f7b6c974*%
D12*
X10770Y-1036D03*
X10770Y4214D03*
M02*