M48
M71,TZ
FMAT,2
T1C0.83185
T2C0.85
T3C1.05
T4C1.09982
T5C1.1
T6C2.54
%
T1
X23.622Y30.772869
X4.9276Y3.302
X7.8829Y26.8224
X7.8829Y29.3624
X3.048Y32.258
X20.9804Y18.669
T2
X8.5471Y44.6024
X8.5471Y42.0624
X8.5471Y39.5224
X8.5471Y36.9824
X8.5471Y34.4424
X8.5471Y31.9024
X8.5471Y29.3624
X8.5471Y26.8224
X8.5471Y24.2824
X8.5471Y21.7424
X8.5471Y19.2024
X8.5471Y16.6624
X8.5471Y14.1224
X8.5471Y11.5824
X16.4846Y11.5824
X16.4846Y14.1224
X16.4846Y16.6624
X16.4846Y19.2024
X16.4846Y21.7424
X16.4846Y24.2824
X16.4846Y26.8224
X16.4846Y29.3624
X16.4846Y31.9024
X16.4846Y34.4424
X16.4846Y36.9824
X16.4846Y39.5224
X16.4846Y42.0624
X16.4846Y44.6024
X15.3016Y7.5024
X10.3016Y7.5024
T3
X14.3656Y-1.0356
X14.3656Y4.2144
X15.1249816578Y52.3427747516
X9.46221834223Y47.2439992484
X15.1249816578Y56.4481877516
X9.46221834223Y51.3494122484
X10.7696Y-1.0356
X10.7696Y4.2144
T4
X16.5862Y61.6458
X11.5062Y61.6458
X6.4262Y61.6458
T5
X19.1262Y61.6458
X3.8862Y61.6458
X21.6662Y61.6458
X8.9662Y61.6458
X14.0462Y61.6458
X20.1676Y7.835399
X20.1676Y10.375399
X20.1676Y12.915399
X20.1676Y15.455399
X20.1676Y23.075399
X20.1676Y48.475399
X20.1676Y53.555399
X20.1676Y56.095399
X4.9276Y7.835399
X4.9276Y10.375399
X4.9276Y12.915399
X4.9276Y28.155399
X4.9276Y51.015399
X4.9276Y53.555399
X4.9276Y56.095399
X20.1676Y25.615399
X4.9276Y25.615399
X4.9276Y23.075399
X4.9276Y15.455399
X20.1676Y28.155399
X20.1676Y51.015399
X4.9276Y48.475399
T6
X10.16Y69.215
X15.23111Y69.215
T00
M30
