%FSLAX33Y33*%
%MOMM*%
%AMRR-H1744980-W3048000-R872490-RO1.500*
21,1,1.30302,1.74498,0.,0.,90*
1,1,1.74498,-0.,-0.65151*
1,1,1.74498,-0.,0.65151*
1,1,1.74498,0.,0.65151*
1,1,1.74498,0.,-0.65151*%
%AMRR-H1350000-W2700000-R675000-RO0.000*
21,1,1.35,1.35,0.,0.,360*
1,1,1.35,-0.675,0.*
1,1,1.35,0.675,0.*
1,1,1.35,0.675,-0.*
1,1,1.35,-0.675,0.*%
%AMRR-H1744980-W3048000-R872490-RO1.000*
21,1,1.30302,1.74498,0.,0.,180*
1,1,1.74498,0.65151,-0.*
1,1,1.74498,-0.65151,-0.*
1,1,1.74498,-0.65151,0.*
1,1,1.74498,0.65151,0.*%
%AMRR-H1714500-W3048000-R857250-RO1.000*
21,1,1.3335,1.7145,0.,0.,180*
1,1,1.7145,0.66675,-0.*
1,1,1.7145,-0.66675,-0.*
1,1,1.7145,-0.66675,0.*
1,1,1.7145,0.66675,0.*%
%ADD10C,0.508*%
%ADD11C,1.905*%
%ADD12C,2.54*%
%ADD13C,1.349756*%
%ADD14C,1.6*%
%ADD15C,1.6*%
%ADD16RR-H1744980-W3048000-R872490-RO1.500*%
%ADD17RR-H1350000-W2700000-R675000-RO0.000*%
%ADD18C,1.45*%
%ADD19RR-H1744980-W3048000-R872490-RO1.000*%
%ADD20RR-H1714500-W3048000-R857250-RO1.000*%
D10*
%LNpour fill*%
G36*
G01*
X25325Y68580D02*
X20320Y68580D01*
X20320Y73660D01*
X5080Y73660D01*
X5080Y68580D01*
X0Y68580D01*
X0Y27358D01*
X1187Y27358D01*
X1193Y27422D01*
X1195Y27485D01*
X1201Y27515D01*
X1203Y27545D01*
X1220Y27606D01*
X1233Y27668D01*
X1244Y27696D01*
X1251Y27725D01*
X1278Y27783D01*
X1302Y27842D01*
X1317Y27868D01*
X1330Y27895D01*
X1367Y27947D01*
X1400Y28001D01*
X1420Y28024D01*
X1437Y28049D01*
X1482Y28094D01*
X1524Y28141D01*
X1548Y28160D01*
X1569Y28181D01*
X1621Y28218D01*
X1671Y28257D01*
X1698Y28271D01*
X1722Y28289D01*
X1780Y28316D01*
X1836Y28346D01*
X2584Y28669D01*
X2584Y28975D01*
X2595Y29111D01*
X2627Y29244D01*
X2680Y29371D01*
X2751Y29487D01*
X2840Y29591D01*
X2944Y29680D01*
X3061Y29752D01*
X3187Y29804D01*
X3320Y29836D01*
X3457Y29847D01*
X4813Y29847D01*
X4838Y29940D01*
X3704Y30622D01*
X3442Y30531D01*
X3048Y30486D01*
X2654Y30531D01*
X2279Y30662D01*
X1943Y30873D01*
X1663Y31153D01*
X1452Y31489D01*
X1321Y31864D01*
X1276Y32258D01*
X1321Y32652D01*
X1452Y33027D01*
X1663Y33363D01*
X1943Y33643D01*
X2279Y33854D01*
X2654Y33985D01*
X3048Y34030D01*
X3442Y33985D01*
X3817Y33854D01*
X4153Y33643D01*
X4433Y33363D01*
X4644Y33027D01*
X4775Y32652D01*
X4796Y32470D01*
X6313Y31558D01*
X6378Y31594D01*
X6378Y32722D01*
X6386Y32827D01*
X6411Y32930D01*
X6452Y33028D01*
X6507Y33118D01*
X6553Y33172D01*
X6507Y33226D01*
X6452Y33317D01*
X6411Y33415D01*
X6386Y33518D01*
X6378Y33623D01*
X6378Y35262D01*
X6386Y35367D01*
X6411Y35470D01*
X6452Y35568D01*
X6507Y35658D01*
X6553Y35712D01*
X6507Y35766D01*
X6452Y35857D01*
X6411Y35955D01*
X6386Y36058D01*
X6378Y36163D01*
X6378Y37802D01*
X6386Y37907D01*
X6411Y38010D01*
X6452Y38108D01*
X6507Y38198D01*
X6553Y38252D01*
X6507Y38306D01*
X6452Y38397D01*
X6411Y38495D01*
X6386Y38598D01*
X6378Y38703D01*
X6378Y40342D01*
X6386Y40447D01*
X6411Y40550D01*
X6452Y40648D01*
X6527Y40772D01*
X6491Y40837D01*
X5080Y40837D01*
X5080Y40837D01*
X4894Y40853D01*
X4713Y40902D01*
X4543Y40981D01*
X4390Y41088D01*
X4258Y41220D01*
X4151Y41373D01*
X4072Y41543D01*
X4023Y41724D01*
X4007Y41910D01*
X4007Y46025D01*
X4014Y46111D01*
X4021Y46198D01*
X4023Y46204D01*
X4023Y46211D01*
X4046Y46295D01*
X4067Y46379D01*
X4070Y46385D01*
X4072Y46392D01*
X4108Y46470D01*
X4144Y46550D01*
X4148Y46555D01*
X4151Y46561D01*
X4200Y46632D01*
X4268Y46731D01*
X4232Y46799D01*
X3442Y46799D01*
X3308Y46810D01*
X3177Y46841D01*
X3053Y46892D01*
X2938Y46963D01*
X2836Y47050D01*
X2748Y47152D01*
X2678Y47267D01*
X2626Y47391D01*
X2595Y47522D01*
X2584Y47656D01*
X2584Y49295D01*
X2595Y49429D01*
X2626Y49559D01*
X2678Y49684D01*
X2714Y49743D01*
X2680Y49800D01*
X2627Y49927D01*
X2595Y50060D01*
X2584Y50196D01*
X2584Y51835D01*
X2595Y51971D01*
X2627Y52104D01*
X2680Y52231D01*
X2713Y52285D01*
X2680Y52340D01*
X2627Y52467D01*
X2595Y52600D01*
X2584Y52736D01*
X2584Y54375D01*
X2595Y54511D01*
X2627Y54644D01*
X2680Y54771D01*
X2713Y54825D01*
X2680Y54880D01*
X2627Y55007D01*
X2595Y55140D01*
X2584Y55276D01*
X2584Y56915D01*
X2595Y57051D01*
X2627Y57184D01*
X2680Y57311D01*
X2751Y57427D01*
X2840Y57531D01*
X2944Y57620D01*
X3061Y57692D01*
X3187Y57744D01*
X3320Y57776D01*
X3457Y57787D01*
X4084Y57787D01*
X4117Y57865D01*
X3127Y58855D01*
X3097Y58891D01*
X3064Y58924D01*
X3037Y58962D01*
X3007Y58998D01*
X2984Y59039D01*
X2957Y59077D01*
X2937Y59120D01*
X2914Y59160D01*
X2898Y59204D01*
X2878Y59247D01*
X2866Y59292D01*
X2851Y59333D01*
X2797Y59345D01*
X2671Y59398D01*
X2554Y59469D01*
X2450Y59558D01*
X2361Y59662D01*
X2290Y59779D01*
X2237Y59906D01*
X2205Y60039D01*
X2195Y60175D01*
X2195Y63116D01*
X2205Y63253D01*
X2237Y63386D01*
X2290Y63513D01*
X2361Y63629D01*
X2450Y63733D01*
X2554Y63822D01*
X2671Y63894D01*
X2797Y63946D01*
X2931Y63978D01*
X3067Y63989D01*
X4705Y63989D01*
X4842Y63978D01*
X4975Y63946D01*
X5101Y63894D01*
X5218Y63822D01*
X5322Y63733D01*
X5411Y63629D01*
X5483Y63513D01*
X5535Y63386D01*
X5567Y63253D01*
X5578Y63116D01*
X5578Y60175D01*
X5567Y60039D01*
X5535Y59906D01*
X5483Y59779D01*
X5390Y59628D01*
X5525Y59493D01*
X7010Y59493D01*
X7057Y59489D01*
X7104Y59489D01*
X7150Y59481D01*
X7197Y59477D01*
X7242Y59465D01*
X7288Y59457D01*
X7332Y59441D01*
X7377Y59428D01*
X7420Y59409D01*
X7464Y59393D01*
X7505Y59369D01*
X7547Y59349D01*
X7585Y59323D01*
X7626Y59299D01*
X7662Y59269D01*
X7700Y59242D01*
X7733Y59209D01*
X7769Y59179D01*
X7815Y59133D01*
X7893Y59166D01*
X7893Y59339D01*
X7751Y59398D01*
X7634Y59469D01*
X7530Y59558D01*
X7441Y59662D01*
X7370Y59779D01*
X7317Y59906D01*
X7285Y60039D01*
X7275Y60175D01*
X7275Y63116D01*
X7285Y63253D01*
X7317Y63386D01*
X7370Y63513D01*
X7441Y63629D01*
X7530Y63733D01*
X7634Y63822D01*
X7751Y63894D01*
X7877Y63946D01*
X8011Y63978D01*
X8147Y63989D01*
X9785Y63989D01*
X9922Y63978D01*
X10055Y63946D01*
X10181Y63894D01*
X10298Y63822D01*
X10402Y63733D01*
X10491Y63629D01*
X10563Y63513D01*
X10615Y63386D01*
X10647Y63253D01*
X10658Y63116D01*
X10658Y60175D01*
X10647Y60039D01*
X10615Y59906D01*
X10563Y59779D01*
X10491Y59662D01*
X10402Y59558D01*
X10298Y59469D01*
X10115Y59357D01*
X12016Y57456D01*
X12089Y57478D01*
X12535Y59639D01*
X12450Y59779D01*
X12397Y59906D01*
X12365Y60039D01*
X12355Y60175D01*
X12355Y63116D01*
X12365Y63253D01*
X12397Y63386D01*
X12450Y63513D01*
X12521Y63629D01*
X12610Y63733D01*
X12714Y63822D01*
X12831Y63894D01*
X12957Y63946D01*
X13091Y63978D01*
X13227Y63989D01*
X14865Y63989D01*
X15002Y63978D01*
X15135Y63946D01*
X15261Y63894D01*
X15378Y63822D01*
X15482Y63733D01*
X15571Y63629D01*
X15643Y63513D01*
X15695Y63386D01*
X15727Y63253D01*
X15738Y63116D01*
X15738Y60175D01*
X15727Y60039D01*
X15695Y59906D01*
X15643Y59779D01*
X15571Y59662D01*
X15482Y59558D01*
X15378Y59469D01*
X15261Y59398D01*
X15135Y59345D01*
X15002Y59313D01*
X14865Y59303D01*
X14658Y59303D01*
X14380Y57960D01*
X14436Y57912D01*
X14765Y58027D01*
X15078Y58062D01*
X17435Y60663D01*
X17435Y63116D01*
X17445Y63253D01*
X17477Y63386D01*
X17530Y63513D01*
X17601Y63629D01*
X17690Y63733D01*
X17794Y63822D01*
X17911Y63894D01*
X18037Y63946D01*
X18171Y63978D01*
X18307Y63989D01*
X19945Y63989D01*
X20082Y63978D01*
X20215Y63946D01*
X20341Y63894D01*
X20396Y63860D01*
X20451Y63894D01*
X20577Y63946D01*
X20711Y63978D01*
X20847Y63989D01*
X22485Y63989D01*
X22622Y63978D01*
X22755Y63946D01*
X22881Y63894D01*
X22998Y63822D01*
X23102Y63733D01*
X23191Y63629D01*
X23263Y63513D01*
X23315Y63386D01*
X23347Y63253D01*
X23358Y63116D01*
X23358Y60175D01*
X23347Y60039D01*
X23315Y59906D01*
X23263Y59779D01*
X23191Y59662D01*
X23102Y59558D01*
X22998Y59469D01*
X22881Y59398D01*
X22755Y59345D01*
X22596Y59307D01*
X22596Y58713D01*
X22596Y58713D01*
X22580Y58527D01*
X22531Y58346D01*
X22452Y58176D01*
X22345Y58023D01*
X22212Y57891D01*
X21978Y57727D01*
X22151Y57620D01*
X22255Y57531D01*
X22344Y57427D01*
X22416Y57311D01*
X22468Y57184D01*
X22500Y57051D01*
X22511Y56915D01*
X22511Y56295D01*
X19963Y56295D01*
X19963Y55895D01*
X22511Y55895D01*
X22511Y55276D01*
X22500Y55140D01*
X22468Y55007D01*
X22416Y54880D01*
X22382Y54825D01*
X22416Y54771D01*
X22468Y54644D01*
X22500Y54511D01*
X22511Y54375D01*
X22511Y52736D01*
X22500Y52600D01*
X22468Y52467D01*
X22416Y52340D01*
X22381Y52283D01*
X22417Y52224D01*
X22469Y52099D01*
X22500Y51969D01*
X22511Y51835D01*
X22511Y50196D01*
X22500Y50062D01*
X22469Y49931D01*
X22417Y49807D01*
X22381Y49748D01*
X22416Y49691D01*
X22468Y49564D01*
X22500Y49431D01*
X22511Y49295D01*
X22511Y48675D01*
X20368Y48675D01*
X20368Y48680D01*
X19968Y48680D01*
X19968Y48675D01*
X19963Y48675D01*
X19963Y48275D01*
X19968Y48275D01*
X19968Y46784D01*
X18697Y46784D01*
X18560Y46795D01*
X18427Y46826D01*
X18301Y46879D01*
X18184Y46950D01*
X18080Y47039D01*
X17991Y47143D01*
X17916Y47266D01*
X17826Y47244D01*
X17747Y46097D01*
X17979Y46097D01*
X18084Y46088D01*
X18187Y46064D01*
X18285Y46023D01*
X18376Y45968D01*
X18456Y45899D01*
X18525Y45818D01*
X18580Y45728D01*
X18621Y45630D01*
X18645Y45527D01*
X18654Y45422D01*
X18654Y43783D01*
X18645Y43678D01*
X18621Y43575D01*
X18580Y43477D01*
X18525Y43386D01*
X18479Y43332D01*
X18525Y43278D01*
X18580Y43188D01*
X18621Y43090D01*
X18645Y42987D01*
X18654Y42882D01*
X18654Y41243D01*
X18645Y41138D01*
X18621Y41035D01*
X18580Y40937D01*
X18525Y40846D01*
X18479Y40792D01*
X18525Y40738D01*
X18580Y40648D01*
X18621Y40550D01*
X18645Y40447D01*
X18654Y40342D01*
X18654Y38703D01*
X18645Y38598D01*
X18621Y38495D01*
X18580Y38397D01*
X18525Y38306D01*
X18479Y38252D01*
X18525Y38198D01*
X18580Y38108D01*
X18621Y38010D01*
X18645Y37907D01*
X18654Y37802D01*
X18654Y36163D01*
X18645Y36058D01*
X18621Y35955D01*
X18580Y35857D01*
X18525Y35766D01*
X18479Y35712D01*
X18525Y35658D01*
X18580Y35568D01*
X18621Y35470D01*
X18645Y35367D01*
X18654Y35262D01*
X18654Y33623D01*
X18645Y33518D01*
X18621Y33415D01*
X18580Y33317D01*
X18525Y33226D01*
X18479Y33172D01*
X18525Y33118D01*
X18580Y33028D01*
X18621Y32930D01*
X18645Y32827D01*
X18654Y32722D01*
X18654Y31083D01*
X18645Y30978D01*
X18621Y30875D01*
X18580Y30777D01*
X18525Y30686D01*
X18479Y30632D01*
X18525Y30578D01*
X18580Y30488D01*
X18621Y30390D01*
X18645Y30287D01*
X18654Y30182D01*
X18654Y29847D01*
X21638Y29847D01*
X21775Y29836D01*
X21908Y29804D01*
X22034Y29752D01*
X22151Y29680D01*
X22255Y29591D01*
X22344Y29487D01*
X22416Y29371D01*
X22468Y29244D01*
X22500Y29111D01*
X22511Y28975D01*
X22511Y27336D01*
X22500Y27200D01*
X22468Y27067D01*
X22416Y26940D01*
X22382Y26885D01*
X22416Y26831D01*
X22468Y26704D01*
X22500Y26571D01*
X22511Y26435D01*
X22511Y24796D01*
X22500Y24660D01*
X22468Y24527D01*
X22416Y24400D01*
X22382Y24345D01*
X22416Y24291D01*
X22468Y24164D01*
X22500Y24031D01*
X22511Y23895D01*
X22511Y22256D01*
X22503Y22155D01*
X22911Y22155D01*
X22948Y22152D01*
X22986Y22155D01*
X23172Y22139D01*
X23353Y22091D01*
X23522Y22012D01*
X23676Y21905D01*
X23808Y21773D01*
X23916Y21620D01*
X23995Y21450D01*
X24044Y21270D01*
X24060Y21083D01*
X24086Y0890D01*
X24078Y0800D01*
X24070Y0709D01*
X24070Y0707D01*
X24069Y0704D01*
X24046Y0616D01*
X24023Y0528D01*
X24022Y0526D01*
X24021Y0523D01*
X23983Y0441D01*
X23945Y0358D01*
X23944Y0356D01*
X23942Y0354D01*
X23890Y0279D01*
X23839Y0204D01*
X23837Y0202D01*
X23835Y0200D01*
X23771Y0136D01*
X23707Y0071D01*
X23705Y0070D01*
X23703Y0068D01*
X23629Y0016D01*
X23555Y-0037D01*
X23552Y-0038D01*
X23550Y-0040D01*
X23468Y-0078D01*
X23386Y-0117D01*
X23383Y-0118D01*
X23381Y-0119D01*
X23293Y-0143D01*
X23205Y-0167D01*
X23203Y-0167D01*
X23200Y-0168D01*
X23109Y-0176D01*
X23019Y-0184D01*
X19980Y-0203D01*
X19980Y-0203D01*
X15836Y-0228D01*
X15800Y-0294D01*
X15824Y-0333D01*
X15944Y-0675D01*
X15962Y-0836D01*
X14566Y-0836D01*
X14566Y-0831D01*
X14166Y-0831D01*
X14166Y-0836D01*
X12769Y-0836D01*
X12787Y-0675D01*
X12937Y-0246D01*
X12200Y-0251D01*
X12348Y-0675D01*
X12366Y-0836D01*
X10970Y-0836D01*
X10970Y-0831D01*
X10570Y-0831D01*
X10570Y-0836D01*
X9173Y-0836D01*
X9191Y-0675D01*
X9333Y-0269D01*
X2445Y-0311D01*
X2376Y-0306D01*
X2313Y-0311D01*
X2127Y-0295D01*
X1946Y-0247D01*
X1777Y-0168D01*
X1623Y-0061D01*
X1491Y0071D01*
X1383Y0224D01*
X1304Y0393D01*
X1255Y0574D01*
X1238Y0760D01*
X1187Y27358D01*
X0Y27358D01*
X0Y-5080D01*
X10570Y-5080D01*
X10570Y-2632D01*
X10409Y-2614D01*
X10067Y-2494D01*
X9760Y-2302D01*
X9504Y-2045D01*
X9311Y-1738D01*
X9191Y-1396D01*
X9173Y-1236D01*
X10570Y-1236D01*
X10570Y-2632D01*
X10570Y-5080D01*
X10970Y-5080D01*
X10970Y-2632D01*
X10970Y-1236D01*
X12366Y-1236D01*
X12348Y-1396D01*
X12228Y-1738D01*
X12036Y-2045D01*
X11779Y-2302D01*
X11472Y-2494D01*
X11130Y-2614D01*
X10970Y-2632D01*
X10970Y-5080D01*
X14166Y-5080D01*
X14166Y-2632D01*
X14005Y-2614D01*
X13663Y-2494D01*
X13356Y-2302D01*
X13100Y-2045D01*
X12907Y-1738D01*
X12787Y-1396D01*
X12769Y-1236D01*
X14166Y-1236D01*
X14166Y-2632D01*
X14166Y-5080D01*
X14566Y-5080D01*
X14566Y-2632D01*
X14566Y-1236D01*
X15962Y-1236D01*
X15944Y-1396D01*
X15824Y-1738D01*
X15632Y-2045D01*
X15375Y-2302D01*
X15068Y-2494D01*
X14726Y-2614D01*
X14566Y-2632D01*
X14566Y-5080D01*
X25325Y-5080D01*
X25325Y48275D01*
X22511Y48275D01*
X22511Y47656D01*
X22500Y47520D01*
X22468Y47387D01*
X22416Y47260D01*
X22344Y47143D01*
X22255Y47039D01*
X22151Y46950D01*
X22034Y46879D01*
X21908Y46826D01*
X21775Y46795D01*
X21638Y46784D01*
X20368Y46784D01*
X20368Y48275D01*
X22511Y48275D01*
X25325Y48275D01*
X10470Y52694D02*
X10436Y56000D01*
X8772Y57665D01*
X8693Y57633D01*
X8693Y56337D01*
X8691Y56316D01*
X8671Y52777D01*
X9102Y52928D01*
X9462Y52969D01*
X9823Y52928D01*
X10165Y52808D01*
X10404Y52658D01*
X14422Y53802D02*
X14765Y53921D01*
X15125Y53962D01*
X15485Y53921D01*
X15828Y53802D01*
X15891Y53762D01*
X15956Y53796D01*
X15993Y55014D01*
X15927Y55052D01*
X15828Y54989D01*
X15485Y54870D01*
X15125Y54829D01*
X14765Y54870D01*
X14422Y54989D01*
X14173Y55146D01*
X14107Y55110D01*
X14111Y53683D01*
X14177Y53647D01*
X14315Y26869D02*
X14315Y27642D01*
X14324Y27747D01*
X14348Y27850D01*
X14389Y27948D01*
X14444Y28038D01*
X14491Y28092D01*
X14444Y28146D01*
X14389Y28237D01*
X14348Y28335D01*
X14324Y28438D01*
X14315Y28543D01*
X14315Y30182D01*
X14324Y30287D01*
X14348Y30390D01*
X14389Y30488D01*
X14444Y30578D01*
X14491Y30632D01*
X14444Y30686D01*
X14389Y30777D01*
X14348Y30875D01*
X14324Y30978D01*
X14315Y31083D01*
X14315Y32722D01*
X14324Y32827D01*
X14348Y32930D01*
X14389Y33028D01*
X14444Y33118D01*
X14491Y33172D01*
X14444Y33226D01*
X14389Y33317D01*
X14348Y33415D01*
X14324Y33518D01*
X14315Y33623D01*
X14315Y35262D01*
X14324Y35367D01*
X14348Y35470D01*
X14389Y35568D01*
X14444Y35658D01*
X14491Y35712D01*
X14444Y35766D01*
X14389Y35857D01*
X14348Y35955D01*
X14324Y36058D01*
X14315Y36163D01*
X14315Y37802D01*
X14324Y37907D01*
X14348Y38010D01*
X14389Y38108D01*
X14444Y38198D01*
X14491Y38252D01*
X14444Y38306D01*
X14389Y38397D01*
X14348Y38495D01*
X14324Y38598D01*
X14315Y38703D01*
X14315Y40342D01*
X14324Y40447D01*
X14348Y40550D01*
X14389Y40648D01*
X14444Y40738D01*
X14491Y40792D01*
X14444Y40846D01*
X14389Y40937D01*
X14348Y41035D01*
X14324Y41138D01*
X14315Y41243D01*
X14315Y42882D01*
X14324Y42987D01*
X14348Y43090D01*
X14389Y43188D01*
X14444Y43278D01*
X14491Y43332D01*
X14444Y43386D01*
X14389Y43477D01*
X14348Y43575D01*
X14324Y43678D01*
X14315Y43783D01*
X14315Y45422D01*
X14324Y45527D01*
X14348Y45630D01*
X14389Y45728D01*
X14444Y45818D01*
X14513Y45899D01*
X14594Y45968D01*
X14684Y46023D01*
X14782Y46064D01*
X14885Y46088D01*
X14990Y46097D01*
X15596Y46097D01*
X15819Y49350D01*
X15867Y50898D01*
X15485Y50764D01*
X15125Y50724D01*
X14765Y50764D01*
X14422Y50884D01*
X14183Y51034D01*
X14118Y50998D01*
X14179Y26888D01*
X14242Y26834D01*
X6411Y43090D02*
X6452Y43188D01*
X6507Y43278D01*
X6553Y43332D01*
X6507Y43386D01*
X6452Y43477D01*
X6411Y43575D01*
X6386Y43678D01*
X6378Y43783D01*
X6378Y45369D01*
X6153Y45283D01*
X6153Y42983D01*
X6385Y42983D01*
X12027Y28806D02*
X12003Y38503D01*
X11875Y38468D01*
X11869Y38467D01*
X11864Y38466D01*
X11776Y38458D01*
X11689Y38449D01*
X11683Y38450D01*
X11678Y38449D01*
X10664Y38449D01*
X10643Y38397D01*
X10587Y38306D01*
X10541Y38252D01*
X10587Y38198D01*
X10643Y38108D01*
X10683Y38010D01*
X10708Y37907D01*
X10716Y37802D01*
X10716Y36163D01*
X10708Y36058D01*
X10683Y35955D01*
X10643Y35857D01*
X10587Y35766D01*
X10541Y35712D01*
X10587Y35658D01*
X10643Y35568D01*
X10683Y35470D01*
X10708Y35367D01*
X10716Y35262D01*
X10716Y33623D01*
X10708Y33518D01*
X10683Y33415D01*
X10643Y33317D01*
X10587Y33226D01*
X10541Y33172D01*
X10587Y33118D01*
X10643Y33028D01*
X10683Y32930D01*
X10708Y32827D01*
X10716Y32722D01*
X10716Y31083D01*
X10708Y30978D01*
X10683Y30875D01*
X10643Y30777D01*
X10587Y30686D01*
X10541Y30632D01*
X10587Y30578D01*
X10643Y30488D01*
X10683Y30390D01*
X10708Y30287D01*
X10716Y30182D01*
X10716Y29819D01*
X11954Y28771D01*
X14315Y23809D02*
X14315Y23960D01*
X10790Y26945D01*
X10716Y26911D01*
X10716Y26003D01*
X10708Y25898D01*
X10683Y25795D01*
X10643Y25697D01*
X10587Y25606D01*
X10541Y25552D01*
X10587Y25498D01*
X10643Y25408D01*
X10664Y25356D01*
X11619Y25356D01*
X11661Y25352D01*
X11704Y25352D01*
X11754Y25344D01*
X11805Y25339D01*
X11846Y25328D01*
X11889Y25321D01*
X11937Y25304D01*
X11986Y25291D01*
X12025Y25273D01*
X12065Y25258D01*
X12109Y25233D01*
X12155Y25212D01*
X12190Y25187D01*
X12228Y25166D01*
X14248Y23774D01*
X11751Y22888D02*
X11285Y23209D01*
X10664Y23209D01*
X10643Y23157D01*
X10587Y23066D01*
X10541Y23012D01*
X10587Y22958D01*
X10643Y22868D01*
X10664Y22816D01*
X11492Y22816D01*
X11538Y22811D01*
X11585Y22811D01*
X11631Y22803D01*
X11718Y22796D01*
X12998Y21864D02*
X12998Y22028D01*
X12640Y22275D01*
X12566Y22186D01*
X12920Y21832D01*
X3457Y17147D02*
X6378Y17147D01*
X6378Y17482D01*
X6386Y17587D01*
X6411Y17690D01*
X6452Y17788D01*
X6507Y17878D01*
X6553Y17932D01*
X6507Y17986D01*
X6452Y18077D01*
X6411Y18175D01*
X6386Y18278D01*
X6378Y18383D01*
X6378Y20022D01*
X6386Y20127D01*
X6411Y20230D01*
X6452Y20328D01*
X6507Y20418D01*
X6553Y20472D01*
X6507Y20526D01*
X6452Y20617D01*
X6411Y20715D01*
X6386Y20818D01*
X6378Y20923D01*
X6378Y21384D01*
X3457Y21384D01*
X3345Y21393D01*
X3353Y17139D01*
X9958Y9008D02*
X10302Y9047D01*
X10325Y9044D01*
X11093Y9812D01*
X11093Y20623D01*
X11047Y20669D01*
X10664Y20669D01*
X10643Y20617D01*
X10587Y20526D01*
X10541Y20472D01*
X10587Y20418D01*
X10643Y20328D01*
X10683Y20230D01*
X10708Y20127D01*
X10716Y20022D01*
X10716Y18383D01*
X10708Y18278D01*
X10683Y18175D01*
X10643Y18077D01*
X10587Y17986D01*
X10541Y17932D01*
X10587Y17878D01*
X10643Y17788D01*
X10683Y17690D01*
X10708Y17587D01*
X10716Y17482D01*
X10716Y15843D01*
X10708Y15738D01*
X10683Y15635D01*
X10643Y15537D01*
X10587Y15446D01*
X10541Y15392D01*
X10587Y15338D01*
X10643Y15248D01*
X10683Y15150D01*
X10708Y15047D01*
X10716Y14942D01*
X10716Y13303D01*
X10708Y13198D01*
X10683Y13095D01*
X10643Y12997D01*
X10587Y12906D01*
X10541Y12852D01*
X10587Y12798D01*
X10643Y12708D01*
X10683Y12610D01*
X10708Y12507D01*
X10716Y12402D01*
X10716Y10763D01*
X10708Y10658D01*
X10683Y10555D01*
X10643Y10457D01*
X10587Y10366D01*
X10519Y10286D01*
X10438Y10217D01*
X10348Y10162D01*
X10250Y10121D01*
X10147Y10097D01*
X10041Y10088D01*
X9609Y10088D01*
X9574Y8873D01*
X20368Y17147D02*
X21638Y17147D01*
X21775Y17136D01*
X21919Y17102D01*
X21915Y20009D01*
X20030Y20009D01*
X20047Y17788D01*
X20040Y17707D01*
X20036Y17625D01*
X20033Y17614D01*
X20032Y17602D01*
X20011Y17523D01*
X19993Y17443D01*
X19988Y17432D01*
X19985Y17421D01*
X19951Y17346D01*
X19919Y17271D01*
X19912Y17261D01*
X19907Y17251D01*
X19883Y17215D01*
X19918Y17147D01*
X19968Y17147D01*
X19968Y15251D01*
X20368Y15251D01*
X16012Y5641D02*
X17824Y7309D01*
X17824Y8655D01*
X17835Y8791D01*
X17867Y8924D01*
X17920Y9051D01*
X17953Y9105D01*
X17920Y9160D01*
X17867Y9287D01*
X17835Y9420D01*
X17824Y9556D01*
X17824Y10048D01*
X17697Y10088D01*
X15145Y10088D01*
X15145Y9799D01*
X15630Y9013D01*
X15972Y8894D01*
X16264Y8710D01*
X16509Y8465D01*
X16693Y8172D01*
X16807Y7846D01*
X16846Y7502D01*
X16807Y7159D01*
X16693Y6832D01*
X16509Y6540D01*
X16264Y6295D01*
X15998Y6128D01*
X15869Y5627D01*
X15956Y5580D01*
X7462Y10088D02*
X7271Y10088D01*
X7271Y9556D01*
X7260Y9420D01*
X7228Y9287D01*
X7176Y9160D01*
X7142Y9105D01*
X7176Y9051D01*
X7228Y8924D01*
X7260Y8791D01*
X7271Y8655D01*
X7271Y7831D01*
X7396Y7829D01*
X13009Y3349D02*
X12907Y3512D01*
X12787Y3854D01*
X12746Y4214D01*
X12787Y4575D01*
X12907Y4917D01*
X13100Y5224D01*
X13356Y5480D01*
X13665Y5674D01*
X13948Y6773D01*
X13910Y6832D01*
X13796Y7159D01*
X13757Y7502D01*
X13796Y7846D01*
X13808Y7879D01*
X13191Y8877D01*
X13116Y8873D01*
X13096Y8831D01*
X13069Y8792D01*
X13046Y8752D01*
X13016Y8716D01*
X12989Y8678D01*
X12956Y8644D01*
X12925Y8609D01*
X11843Y7526D01*
X11846Y7502D01*
X11807Y7159D01*
X11693Y6832D01*
X11520Y6558D01*
X11663Y5553D01*
X11779Y5480D01*
X12036Y5224D01*
X12228Y4917D01*
X12348Y4575D01*
X12389Y4214D01*
X12348Y3854D01*
X12228Y3512D01*
X12126Y3349D01*
X12162Y3283D01*
X12973Y3283D01*
X7289Y1865D02*
X7269Y1948D01*
X7249Y2023D01*
X7248Y2039D01*
X7244Y2054D01*
X7239Y2132D01*
X7233Y2210D01*
X7234Y2225D01*
X7233Y2241D01*
X7367Y6838D01*
X7253Y6853D01*
X7228Y6747D01*
X7176Y6620D01*
X7104Y6503D01*
X7015Y6399D01*
X6911Y6310D01*
X6794Y6239D01*
X6668Y6186D01*
X6535Y6155D01*
X6398Y6144D01*
X5961Y6144D01*
X5928Y4753D01*
X6032Y4687D01*
X6313Y4407D01*
X6524Y4071D01*
X6655Y3696D01*
X6699Y3302D01*
X6655Y2908D01*
X6524Y2533D01*
X6313Y2197D01*
X6052Y1936D01*
X6084Y1858D01*
X21938Y1956D02*
X21933Y6192D01*
X21775Y6155D01*
X21638Y6144D01*
X19728Y6144D01*
X17803Y4372D01*
X17761Y2189D01*
X17733Y1930D01*
X3542Y4407D02*
X3778Y4642D01*
X3814Y6144D01*
X3457Y6144D01*
X3374Y6150D01*
X3378Y4317D01*
X3470Y4291D01*
X3786Y1843D02*
X3818Y1922D01*
X3542Y2197D01*
X3474Y2307D01*
X3382Y2280D01*
X3382Y1841D01*
G37*
%LNbottom copper_traces*%
X5080Y41910D02*
X8890Y41910D01*
X13030Y56731D02*
X13106Y26488D01*
X8579Y21742D02*
X11492Y21742D01*
X12167Y21067D02*
X12167Y9367D01*
X8966Y61646D02*
X8966Y58988D01*
X2311Y0762D02*
X2261Y27360D01*
X18983Y58713D02*
X21523Y58713D01*
X16688Y2210D02*
X16739Y4851D01*
X3886Y61646D02*
X3886Y59614D01*
X16516Y11582D02*
X20168Y10439D01*
X7563Y46965D02*
X5080Y46025D01*
X2438Y0762D02*
X23012Y0889D01*
X14072Y9494D02*
X15302Y7502D01*
X8579Y11582D02*
X8306Y2210D01*
X22911Y21082D02*
X19050Y21082D01*
X14366Y4089D02*
X15215Y7391D01*
X18974Y17780D02*
X16485Y16789D01*
X23012Y0889D02*
X22987Y21082D01*
X3886Y59614D02*
X5080Y58420D01*
X16739Y4851D02*
X19914Y7772D01*
X12167Y9367D02*
X10302Y7502D01*
X11678Y39522D02*
X8890Y39522D01*
X16516Y14122D02*
X20168Y12979D01*
X9595Y29362D02*
X15596Y24282D01*
X2261Y27360D02*
X4547Y28346D01*
X9462Y51603D02*
X9462Y47244D01*
X5080Y58420D02*
X7010Y58420D01*
X9462Y47244D02*
X8636Y44704D01*
X20980Y18669D02*
X20168Y15469D01*
X11506Y56337D02*
X11678Y39522D01*
X7010Y58420D02*
X7620Y57810D01*
X10302Y7502D02*
X10770Y4216D01*
X7620Y57810D02*
X7620Y56337D01*
X11492Y21742D02*
X12167Y21067D01*
X7563Y46965D02*
X7620Y56642D01*
X14072Y22591D02*
X14072Y9494D01*
X17120Y56731D02*
X18983Y58713D01*
X16891Y49297D02*
X17120Y56731D01*
X18983Y60773D02*
X15240Y56642D01*
X3150Y32207D02*
X7883Y29362D01*
X8306Y2210D02*
X16561Y2210D01*
X8598Y44602D02*
X8636Y44704D01*
X13030Y56731D02*
X14046Y61646D01*
X8484Y42062D02*
X8738Y42062D01*
X18948Y21082D02*
X18974Y17780D01*
X8966Y58988D02*
X11506Y56448D01*
X15125Y52343D02*
X13208Y52324D01*
X16485Y21742D02*
X20168Y23012D01*
X16535Y29362D02*
X19685Y30773D01*
X8579Y24282D02*
X11619Y24282D01*
X5080Y41910D02*
X5080Y46025D01*
X16891Y49297D02*
X16586Y44856D01*
X11619Y24282D02*
X14072Y22591D01*
X21523Y58713D02*
X21523Y61646D01*
X4928Y7835D02*
X4826Y3556D01*
X19685Y30773D02*
X22606Y30734D01*
D11*
X23622Y30773D03*
D12*
X10160Y69215D03*
D11*
X4928Y3302D03*
D13*
X7883Y26822D03*
X7883Y29362D03*
D12*
X15231Y69215D03*
D11*
X3048Y32258D03*
X20980Y18669D03*
%LNbottom copper component 3cb8959678233c1b*%
D14*
X14366Y-1036D03*
X14366Y4214D03*
%LNbottom copper component 824f435eb96077e0*%
D15*
X15125Y52343D03*
X9462Y47244D03*
%LNbottom copper component 88b3df5dd39fbf3c*%
D16*
X19126Y61646D03*
X3886Y61646D03*
X21666Y61646D03*
X8966Y61646D03*
X14046Y61646D03*
X16586Y61646D03*
X11506Y61646D03*
X6426Y61646D03*
%LNbottom copper component 81296bd5f93fcded*%
D17*
X8547Y44602D03*
X8547Y42062D03*
X8547Y39522D03*
X8547Y36982D03*
X8547Y34442D03*
X8547Y31902D03*
X8547Y29362D03*
X8547Y26822D03*
X8547Y24282D03*
X8547Y21742D03*
X8547Y19202D03*
X8547Y16662D03*
X8547Y14122D03*
X8547Y11582D03*
X16485Y11582D03*
X16485Y14122D03*
X16485Y16662D03*
X16485Y19202D03*
X16485Y21742D03*
X16485Y24282D03*
X16485Y26822D03*
X16485Y29362D03*
X16485Y31902D03*
X16485Y34442D03*
X16485Y36982D03*
X16485Y39522D03*
X16485Y42062D03*
X16485Y44602D03*
%LNbottom copper component b3a48d7d43e52f89*%
D18*
X15302Y7502D03*
X10302Y7502D03*
%LNbottom copper component 60de64ed69294721*%
D19*
X20168Y7835D03*
X20168Y10375D03*
X20168Y12915D03*
X20168Y15455D03*
X20168Y23075D03*
X20168Y48475D03*
X20168Y53555D03*
X20168Y56095D03*
X4928Y7835D03*
X4928Y10375D03*
X4928Y12915D03*
X4928Y28155D03*
X4928Y51015D03*
X4928Y53555D03*
X4928Y56095D03*
X20168Y25615D03*
X4928Y25615D03*
X4928Y23075D03*
X4928Y15455D03*
X20168Y28155D03*
D20*
X20168Y51015D03*
X4928Y48475D03*
%LNbottom copper component 93e284b16ed1c30b*%
D15*
X15125Y56448D03*
X9462Y51349D03*
%LNbottom copper component 46b559c0f7b6c974*%
D14*
X10770Y-1036D03*
X10770Y4214D03*
M02*